<svg viewBox="0 0 1495 1495" xmlns="http://www.w3.org/2000/svg">
    <defs>
        <linearGradient x1="50%" y1="0%" x2="50%" y2="100%" id="a">
            <stop stop-color="#0F27F3" offset="0%"/>
            <stop stop-color="#0719B6" offset="100%"/>
        </linearGradient>
        <linearGradient x1="50%" y1="0%" x2="50%" y2="100%" id="b">
            <stop stop-color="#0096FF" offset="0%"/>
            <stop stop-color="#0252FF" offset="100%"/>
        </linearGradient>
    </defs>
    <g fill="none" fill-rule="evenodd">
        <circle stroke="#FFF" stroke-width="80" fill="#000B76" cx="747" cy="748" r="673"/>
        <path d="M223.622 849.348c20.8 108.056 74.235 204.496 149.64 278.665C469.458 1222.629 601.413 1281 747 1281c147.184 0 280.434-59.658 376.888-156.112 94.642-94.642 153.858-224.711 156.049-368.609l-4.033-6.653c-52.37-82.83-114.534-113.787-183.65-111.974-103.042 2.705-217.672 70.668-332.406 136.784-127.007 73.188-254.091 144.276-366.282 144.188-47.164-.037-91.983-11.922-133.666-39.889-12.36-8.293-24.469-18.038-36.278-29.387z" stroke="#000B76" stroke-width="60" fill="url(#a)" transform="matrix(-1 0 0 1 1494 0)"/>
        <path d="M223.622 849.348c20.8 108.056 74.235 204.496 149.64 278.665C469.458 1222.629 601.413 1281 747 1281c147.184 0 280.434-59.658 376.888-156.112 94.642-94.642 153.858-224.711 156.049-368.609l-4.033-6.653c-52.37-82.83-114.534-113.787-183.65-111.974-103.042 2.705-217.672 70.668-332.406 136.784-127.007 73.188-254.091 144.276-366.282 144.188-47.164-.037-91.983-11.922-133.666-39.889-12.36-8.293-24.469-18.038-36.278-29.387z" stroke="#000B76" stroke-width="60" fill="url(#b)"/>
        <circle fill="#FFF" cx="747" cy="450" r="138"/>
    </g>
</svg>
